<?xml version="1.0" encoding="utf-8" standalone="no"?>
<!DOCTYPE svg PUBLIC "-//W3C//DTD SVG 1.1//EN"
  "http://www.w3.org/Graphics/SVG/1.1/DTD/svg11.dtd">
<svg xmlns:xlink="http://www.w3.org/1999/xlink" width="68.121065pt" height="108pt" viewBox="0 0 68.121065 108" xmlns="http://www.w3.org/2000/svg" version="1.1">
 <metadata>
  <rdf:RDF xmlns:dc="http://purl.org/dc/elements/1.1/" xmlns:cc="http://creativecommons.org/ns#" xmlns:rdf="http://www.w3.org/1999/02/22-rdf-syntax-ns#">
   <cc:Work>
    <dc:type rdf:resource="http://purl.org/dc/dcmitype/StillImage"/>
    <dc:date>2025-10-07T19:46:34.366258</dc:date>
    <dc:format>image/svg+xml</dc:format>
    <dc:creator>
     <cc:Agent>
      <dc:title>Matplotlib v3.10.0, https://matplotlib.org/</dc:title>
     </cc:Agent>
    </dc:creator>
   </cc:Work>
  </rdf:RDF>
 </metadata>
 <defs>
  <style type="text/css">*{stroke-linejoin: round; stroke-linecap: butt}</style>
 </defs>
 <g id="figure_1">
  <g id="patch_1">
   <path d="M 0 108 
L 68.121065 108 
L 68.121065 0 
L 0 0 
L 0 108 
z
" style="fill: none"/>
  </g>
  <g id="axes_1">
   <g id="patch_2">
    <path d="M -5.704891 108 
L 13.311413 108 
L 13.311413 106.97182 
L -5.704891 106.97182 
z
" clip-path="url(#p831a6b6613)" style="fill: #00b7c2"/>
   </g>
   <g id="patch_3">
    <path d="M 14.579167 108 
L 33.595472 108 
L 33.595472 101.008378 
L 14.579167 101.008378 
z
" clip-path="url(#p831a6b6613)" style="fill: #00b7c2"/>
   </g>
   <g id="patch_4">
    <path d="M 34.863225 108 
L 53.87953 108 
L 53.87953 24.923077 
L 34.863225 24.923077 
z
" clip-path="url(#p831a6b6613)" style="fill: #00b7c2"/>
   </g>
   <g id="text_1">
    <path d="M 25.03919 15.434009 
L 22.56794 19.095884 
L 25.03919 19.095884 
L 25.03919 15.434009 
z
M 24.66419 13.575884 
L 27.17294 13.575884 
L 27.17294 19.095884 
L 28.419815 19.095884 
L 28.419815 20.730884 
L 27.17294 20.730884 
L 27.17294 22.324634 
L 25.03919 22.324634 
L 25.03919 20.730884 
L 21.16169 20.730884 
L 21.16169 18.797759 
L 24.66419 13.575884 
z
M 34.4913 17.940884 
Q 34.4913 16.300259 34.1838 15.630884 
Q 33.8763 14.959634 33.1488 14.959634 
Q 32.423175 14.959634 32.111925 15.630884 
Q 31.800675 16.300259 31.800675 17.940884 
Q 31.800675 19.600259 32.111925 20.280884 
Q 32.423175 20.959634 33.1488 20.959634 
Q 33.870675 20.959634 34.18005 20.280884 
Q 34.4913 19.600259 34.4913 17.940884 
z
M 36.746925 17.959634 
Q 36.746925 20.132759 35.809425 21.314009 
Q 34.871925 22.495259 33.1488 22.495259 
Q 31.42005 22.495259 30.48255 21.314009 
Q 29.54505 20.132759 29.54505 17.959634 
Q 29.54505 15.779009 30.48255 14.599634 
Q 31.42005 13.418384 33.1488 13.418384 
Q 34.871925 13.418384 35.809425 14.599634 
Q 36.746925 15.779009 36.746925 17.959634 
z
M 38.545284 20.057759 
L 40.654659 20.057759 
L 40.654659 22.324634 
L 38.545284 22.324634 
L 38.545284 20.057759 
z
M 46.297003 15.434009 
L 43.825753 19.095884 
L 46.297003 19.095884 
L 46.297003 15.434009 
z
M 45.922003 13.575884 
L 48.430753 13.575884 
L 48.430753 19.095884 
L 49.677628 19.095884 
L 49.677628 20.730884 
L 48.430753 20.730884 
L 48.430753 22.324634 
L 46.297003 22.324634 
L 46.297003 20.730884 
L 42.419503 20.730884 
L 42.419503 18.797759 
L 45.922003 13.575884 
z
M 55.415596 13.206509 
L 57.511846 13.206509 
L 57.511846 18.169634 
L 59.926846 15.762134 
L 62.364346 15.762134 
L 59.158096 18.773384 
L 62.615596 22.324634 
L 60.073096 22.324634 
L 57.511846 19.589009 
L 57.511846 22.324634 
L 55.415596 22.324634 
L 55.415596 13.206509 
z
M 65.68544 13.898384 
L 65.68544 15.762134 
L 67.84919 15.762134 
L 67.84919 17.262134 
L 65.68544 17.262134 
L 65.68544 20.044634 
Q 65.68544 20.502134 65.867315 20.663384 
Q 66.04919 20.824634 66.58919 20.824634 
L 67.667315 20.824634 
L 67.667315 22.324634 
L 65.867315 22.324634 
Q 64.626065 22.324634 64.10669 21.807134 
Q 63.58919 21.287759 63.58919 20.044634 
L 63.58919 17.262134 
L 62.544815 17.262134 
L 62.544815 15.762134 
L 63.58919 15.762134 
L 63.58919 13.898384 
L 65.68544 13.898384 
z
" style="fill: #ffffff; stroke: #000000; stroke-width: 2.8"/>
    <path d="M 25.03919 15.434009 
L 22.56794 19.095884 
L 25.03919 19.095884 
L 25.03919 15.434009 
z
M 24.66419 13.575884 
L 27.17294 13.575884 
L 27.17294 19.095884 
L 28.419815 19.095884 
L 28.419815 20.730884 
L 27.17294 20.730884 
L 27.17294 22.324634 
L 25.03919 22.324634 
L 25.03919 20.730884 
L 21.16169 20.730884 
L 21.16169 18.797759 
L 24.66419 13.575884 
z
M 34.4913 17.940884 
Q 34.4913 16.300259 34.1838 15.630884 
Q 33.8763 14.959634 33.1488 14.959634 
Q 32.423175 14.959634 32.111925 15.630884 
Q 31.800675 16.300259 31.800675 17.940884 
Q 31.800675 19.600259 32.111925 20.280884 
Q 32.423175 20.959634 33.1488 20.959634 
Q 33.870675 20.959634 34.18005 20.280884 
Q 34.4913 19.600259 34.4913 17.940884 
z
M 36.746925 17.959634 
Q 36.746925 20.132759 35.809425 21.314009 
Q 34.871925 22.495259 33.1488 22.495259 
Q 31.42005 22.495259 30.48255 21.314009 
Q 29.54505 20.132759 29.54505 17.959634 
Q 29.54505 15.779009 30.48255 14.599634 
Q 31.42005 13.418384 33.1488 13.418384 
Q 34.871925 13.418384 35.809425 14.599634 
Q 36.746925 15.779009 36.746925 17.959634 
z
M 38.545284 20.057759 
L 40.654659 20.057759 
L 40.654659 22.324634 
L 38.545284 22.324634 
L 38.545284 20.057759 
z
M 46.297003 15.434009 
L 43.825753 19.095884 
L 46.297003 19.095884 
L 46.297003 15.434009 
z
M 45.922003 13.575884 
L 48.430753 13.575884 
L 48.430753 19.095884 
L 49.677628 19.095884 
L 49.677628 20.730884 
L 48.430753 20.730884 
L 48.430753 22.324634 
L 46.297003 22.324634 
L 46.297003 20.730884 
L 42.419503 20.730884 
L 42.419503 18.797759 
L 45.922003 13.575884 
z
M 55.415596 13.206509 
L 57.511846 13.206509 
L 57.511846 18.169634 
L 59.926846 15.762134 
L 62.364346 15.762134 
L 59.158096 18.773384 
L 62.615596 22.324634 
L 60.073096 22.324634 
L 57.511846 19.589009 
L 57.511846 22.324634 
L 55.415596 22.324634 
L 55.415596 13.206509 
z
M 65.68544 13.898384 
L 65.68544 15.762134 
L 67.84919 15.762134 
L 67.84919 17.262134 
L 65.68544 17.262134 
L 65.68544 20.044634 
Q 65.68544 20.502134 65.867315 20.663384 
Q 66.04919 20.824634 66.58919 20.824634 
L 67.667315 20.824634 
L 67.667315 22.324634 
L 65.867315 22.324634 
Q 64.626065 22.324634 64.10669 21.807134 
Q 63.58919 21.287759 63.58919 20.044634 
L 63.58919 17.262134 
L 62.544815 17.262134 
L 62.544815 15.762134 
L 63.58919 15.762134 
L 63.58919 13.898384 
L 65.68544 13.898384 
z
" style="fill: #ffffff"/>
   </g>
  </g>
 </g>
 <defs>
  <clipPath id="p831a6b6613">
   <rect x="0" y="0" width="67.190943" height="108"/>
  </clipPath>
 </defs>
</svg>
